<?xml version="1.0" encoding="UTF-8" standalone="no"?>
<!-- Created with Inkscape (http://www.inkscape.org/) -->

<svg
   width="48.435661mm"
   height="12.982212mm"
   viewBox="0 0 48.435661 12.982212"
   version="1.1"
   id="svg5"
   inkscape:version="1.3.2 (091e20e, 2023-11-25)"
   sodipodi:docname="karp.svg"
   xml:space="preserve"
   inkscape:export-filename="tmp.png"
   inkscape:export-xdpi="171.03999"
   inkscape:export-ydpi="171.03999"
   xmlns:inkscape="http://www.inkscape.org/namespaces/inkscape"
   xmlns:sodipodi="http://sodipodi.sourceforge.net/DTD/sodipodi-0.dtd"
   xmlns="http://www.w3.org/2000/svg"
   xmlns:svg="http://www.w3.org/2000/svg"><sodipodi:namedview
     id="namedview7"
     pagecolor="#ffffff"
     bordercolor="#000000"
     borderopacity="0.25"
     inkscape:showpageshadow="2"
     inkscape:pageopacity="0.0"
     inkscape:pagecheckerboard="0"
     inkscape:deskcolor="#d1d1d1"
     inkscape:document-units="mm"
     showgrid="false"
     inkscape:zoom="5.447705"
     inkscape:cx="156.48791"
     inkscape:cy="21.109807"
     inkscape:window-width="872"
     inkscape:window-height="553"
     inkscape:window-x="148"
     inkscape:window-y="259"
     inkscape:window-maximized="0"
     inkscape:current-layer="layer1"
     showguides="true"><inkscape:grid
       type="xygrid"
       id="grid13315"
       originx="0"
       originy="0"
       spacingy="1"
       spacingx="1"
       units="mm"
       visible="false" /><sodipodi:guide
       position="-0.13918715,62.151294"
       orientation="1,0"
       id="guide13317"
       inkscape:locked="false" /><sodipodi:guide
       position="-13.368353,58.182544"
       orientation="0,-1"
       id="guide13319"
       inkscape:locked="false" /><sodipodi:guide
       position="103.04831,-35.744545"
       orientation="1,0"
       id="guide4551"
       inkscape:locked="false" /></sodipodi:namedview><defs
     id="defs2"><rect
       x="165.33238"
       y="165.66167"
       width="170.87849"
       height="72.536377"
       id="rect827-2" /></defs><g
     inkscape:label="Layer 1"
     inkscape:groupmode="layer"
     id="layer1"
     transform="translate(-10.72252,-55.783663)"><path
       id="path674-1"
       style="fill:#f0581a;fill-opacity:1;stroke-width:0.0112058"
       d="M 50.006427 56.810474 C 49.456355 56.803476 48.767373 57.349725 48.187417 57.332922 C 47.017466 57.613519 45.890499 58.031798 44.793825 58.534399 C 44.281661 58.945246 42.540823 59.2495 43.323114 60.129651 C 44.300081 60.747487 42.937287 60.836978 42.38467 60.907898 C 41.48379 61.19144 40.782002 60.523713 40.078868 60.068673 C 39.299637 59.658891 38.699284 58.788657 37.762213 58.766427 C 37.811733 59.694181 38.443266 60.430289 38.813829 61.244828 C 39.383201 61.995551 39.075399 62.940184 38.465529 63.559416 C 38.212106 64.127992 37.251341 65.147609 37.966335 65.578414 C 38.648594 65.36315 39.301939 65.056248 39.935207 64.723686 C 40.809349 64.330611 41.541687 63.489118 42.57794 63.603857 C 42.90165 63.660107 44.158926 63.701805 43.895172 64.030188 C 42.864433 64.046381 43.055021 64.854149 43.474009 65.472477 C 43.739715 66.635612 44.932601 66.192248 45.522463 65.534489 C 46.200309 64.41728 47.489998 65.12093 48.55742 64.94021 C 49.721328 64.794454 47.981638 65.075155 48.165196 65.779435 C 48.351215 66.519754 48.725241 67.427366 49.546507 67.636686 C 49.761386 67.668195 49.994719 67.646724 50.184194 67.532817 C 50.844334 66.872497 50.362062 65.857258 50.495286 65.043046 C 51.912404 65.026764 53.331009 64.939756 54.733787 64.732988 C 55.761517 64.609503 56.761796 64.353784 57.725336 63.982129 C 58.353376 64.004311 59.248278 63.459834 59.151089 62.735177 C 58.407986 61.811784 57.43619 61.051628 56.393117 60.481567 C 55.141011 59.659937 53.757331 58.968965 52.240916 58.85376 C 51.240604 59.032903 50.980897 57.969199 50.647215 57.26781 C 50.477843 56.931084 50.25646 56.813654 50.006427 56.810474 z M 56.687673 61.684595 A 0.26458332 0.26458332 0 0 1 56.952256 61.949178 A 0.26458332 0.26458332 0 0 1 56.687673 62.213761 A 0.26458332 0.26458332 0 0 1 56.42309 61.949178 A 0.26458332 0.26458332 0 0 1 56.687673 61.684595 z " /><g
       aria-label="Karp"
       transform="matrix(0.26458333,0,0,0.26458333,-34.178689,9.6170629)"
       id="text825-0"
       style="font-weight:300;font-size:49.3333px;font-family:'Open Sans';-inkscape-font-specification:'Open Sans, Light';white-space:pre;shape-inside:url(#rect827-2);display:inline"><path
         d="m 169.70536,174.48794 v 37.33331 h 2.93333 v -18.77332 l 16.26666,18.77332 h 3.73333 l -17.22665,-19.83999 16.42665,-17.49332 h -3.73333 l -15.46666,16.63999 v -16.63999 z"
         style="font-size:53.3333px;font-family:'Jost*';-inkscape-font-specification:'Jost*, Light'"
         id="path3963" /><path
         d="m 197.86534,191.76793 c 1.33333,-1.01333 3.78667,-2.56 7.46666,-2.56 4.74667,0 6.29333,2.77333 6.29333,5.6 v 4.10666 c -1.44,-0.96 -3.94666,-2.08 -7.46666,-2.08 -5.70666,0 -9.22666,2.98667 -9.22666,7.73333 0,5.17333 4.05333,7.78666 8.26666,7.78666 3.36,0 6.98666,-1.65333 8.42666,-5.11999 v 4.58666 h 2.77333 V 194.4346 c 0,-4.90667 -3.30666,-7.68 -8.85332,-7.68 -4.32,0 -7.25333,1.65333 -9.06666,2.93333 z m -0.10667,12.69333 c 0,-3.68 2.66667,-5.38667 6.82667,-5.38667 2.56,0 4.90666,0.58667 7.03999,1.81333 v 0.69334 c 0,5.49333 -3.57333,8.37333 -7.67999,8.37333 -3.41333,0 -6.18667,-1.76 -6.18667,-5.49333 z"
         style="font-size:53.3333px;font-family:'Jost*';-inkscape-font-specification:'Jost*, Light'"
         id="path3965" /><path
         d="m 224.79862,187.28793 h -2.77333 v 24.53332 h 2.77333 v -14.93332 c 0,-4.16 1.33333,-7.52 4.96,-7.52 1.28,0 2.13333,0.37333 3.2,1.17333 l 1.54666,-2.29333 c -1.12,-1.06666 -2.56,-1.49333 -4.10666,-1.49333 -2.34667,0 -4.37333,1.6 -5.6,4.10666 z"
         style="font-size:53.3333px;font-family:'Jost*';-inkscape-font-specification:'Jost*, Light'"
         id="path3967" /><path
         d="m 241.7053,223.55458 v -17.49333 c 1.65333,3.84 4.90667,6.29333 9.12,6.29333 6.55999,0 11.83999,-4.90666 11.83999,-12.79999 0,-7.89333 -5.28,-12.79999 -11.83999,-12.79999 -4.21333,0 -7.46667,2.45333 -9.12,6.29333 v -5.76 h -2.77333 v 36.26665 z m 18.18666,-23.99999 c 0,6.4 -4.21333,10.18666 -9.44,10.18666 -4.53333,0 -8.74666,-4.31999 -8.74666,-10.18666 0,-5.86666 4.21333,-10.18666 8.74666,-10.18666 5.22667,0 9.44,3.78667 9.44,10.18666 z"
         style="font-size:53.3333px;font-family:'Jost*';-inkscape-font-specification:'Jost*, Light'"
         id="path3969" /></g></g></svg>
