<?xml version="1.0" encoding="UTF-8" standalone="no"?>
<!-- Created with Inkscape (http://www.inkscape.org/) -->

<svg
   width="45.557369mm"
   height="17.038223mm"
   viewBox="0 0 45.557369 17.038223"
   version="1.1"
   id="svg5"
   inkscape:version="1.3.2 (091e20e, 2023-11-25)"
   sodipodi:docname="larka.svg"
   xml:space="preserve"
   inkscape:export-filename="tmp.png"
   inkscape:export-xdpi="171.03999"
   inkscape:export-ydpi="171.03999"
   xmlns:inkscape="http://www.inkscape.org/namespaces/inkscape"
   xmlns:sodipodi="http://sodipodi.sourceforge.net/DTD/sodipodi-0.dtd"
   xmlns="http://www.w3.org/2000/svg"
   xmlns:svg="http://www.w3.org/2000/svg"><sodipodi:namedview
     id="namedview7"
     pagecolor="#ffffff"
     bordercolor="#000000"
     borderopacity="0.25"
     inkscape:showpageshadow="2"
     inkscape:pageopacity="0.0"
     inkscape:pagecheckerboard="0"
     inkscape:deskcolor="#d1d1d1"
     inkscape:document-units="mm"
     showgrid="false"
     inkscape:zoom="3.4360818"
     inkscape:cx="139.83951"
     inkscape:cy="32.013208"
     inkscape:window-width="816"
     inkscape:window-height="569"
     inkscape:window-x="42"
     inkscape:window-y="52"
     inkscape:window-maximized="0"
     inkscape:current-layer="layer1"
     showguides="true"><inkscape:grid
       type="xygrid"
       id="grid13315"
       originx="0"
       originy="0"
       spacingy="1"
       spacingx="1"
       units="mm"
       visible="false" /><sodipodi:guide
       position="-0.12304812,147.50924"
       orientation="1,0"
       id="guide13317"
       inkscape:locked="false" /><sodipodi:guide
       position="-13.352215,143.54049"
       orientation="0,-1"
       id="guide13319"
       inkscape:locked="false" /><sodipodi:guide
       position="103.06445,49.613401"
       orientation="1,0"
       id="guide4551"
       inkscape:locked="false" /></sodipodi:namedview><defs
     id="defs2"><rect
       x="165.33238"
       y="165.66167"
       width="170.87849"
       height="72.536377"
       id="rect827-6-9-4-2" /></defs><g
     inkscape:label="Layer 1"
     inkscape:groupmode="layer"
     id="layer1"
     transform="translate(-10.706381,-137.0856)"><g
       aria-label="Lärka"
       transform="matrix(0.26458333,0,0,0.26458333,-34.223051,97.435846)"
       id="text825-4-5-8-5"
       style="font-weight:300;font-size:53.3333px;font-family:'Jost*';-inkscape-font-specification:'Jost*, Light';white-space:pre;shape-inside:url(#rect827-6-9-4-2);display:inline"><path
         d="m 169.81203,174.48794 v 37.33331 h 18.34665 v -2.77333 h -15.41332 v -34.55998 z"
         id="path4133" /><path
         d="m 204.53198,181.1546 c 0,1.06667 0.90666,1.97334 1.97333,1.97334 1.06667,0 1.97333,-0.90667 1.97333,-1.97334 0,-1.12 -0.90666,-2.02666 -1.97333,-2.02666 -1.06667,0 -1.97333,0.90666 -1.97333,2.02666 z m -9.81333,0 c 0,1.06667 0.90667,1.97334 1.97333,1.97334 1.06667,0 1.97334,-0.90667 1.97334,-1.97334 0,-1.12 -0.90667,-2.02666 -1.97334,-2.02666 -1.06666,0 -1.97333,0.90666 -1.97333,2.02666 z m -0.48,10.98666 c 1.49333,-1.28 4.05333,-2.93333 7.57333,-2.93333 3.36,0 5.70666,1.92 5.70666,5.22667 v 4.21333 c -1.28,-0.90667 -3.46666,-1.97334 -6.66666,-1.97334 -5.49333,0 -10.13333,2.77334 -10.13333,8.26667 0,4.90666 3.68,7.41332 8.32,7.41332 4,0 7.19999,-1.97333 8.47999,-5.01333 v 4.48 h 2.77334 V 194.4346 c 0,-4.74667 -3.2,-7.68 -8.48,-7.68 -4.21333,0 -7.14666,1.81333 -8.95999,3.25333 z m -0.69333,12.48 c 0,-3.73334 3.09333,-5.76 7.41333,-5.76 2.72,0 4.79999,0.64 6.55999,1.70666 v 2.08 c 0,4.58667 -3.35999,7.2 -7.83999,7.2 -3.52,0 -6.13333,-1.54667 -6.13333,-5.22666 z"
         id="path4135" /><path
         d="m 220.69198,187.28793 h -2.77333 v 24.53332 h 2.77333 v -14.93332 c 0,-4.16 1.33333,-7.52 4.95999,-7.52 1.28,0 2.13334,0.37333 3.2,1.17333 l 1.54667,-2.29333 c -1.12,-1.06666 -2.56,-1.49333 -4.10667,-1.49333 -2.34666,0 -4.37333,1.6 -5.59999,4.10666 z"
         id="path4137" /><path
         d="m 248.10532,187.28793 -10.50666,9.22666 v -26.29331 h -2.77333 v 41.59997 h 2.77333 v -13.22666 l 11.57332,13.22666 h 3.52 l -12.58666,-14.39999 11.57333,-10.13333 z"
         id="path4139" /><path
         d="m 257.65198,191.76793 c 1.33334,-1.01333 3.78667,-2.56 7.46667,-2.56 4.74666,0 6.29332,2.77333 6.29332,5.6 v 4.10666 c -1.43999,-0.96 -3.94666,-2.08 -7.46666,-2.08 -5.70666,0 -9.22666,2.98667 -9.22666,7.73333 0,5.17333 4.05333,7.78666 8.26666,7.78666 3.36,0 6.98667,-1.65333 8.42666,-5.11999 v 4.58666 h 2.77334 V 194.4346 c 0,-4.90667 -3.30667,-7.68 -8.85333,-7.68 -4.32,0 -7.25333,1.65333 -9.06666,2.93333 z m -0.10666,12.69333 c 0,-3.68 2.66666,-5.38667 6.82666,-5.38667 2.56,0 4.90666,0.58667 7.03999,1.81333 v 0.69334 c 0,5.49333 -3.57333,8.37333 -7.67999,8.37333 -3.41333,0 -6.18666,-1.76 -6.18666,-5.49333 z"
         id="path4141" /></g><path
       id="path6236-1"
       style="fill:#f0581a;fill-opacity:1;stroke-width:0.236963"
       d="M 53.466562 137.0856 C 53.417726 137.48829 53.507965 137.7133 53.084156 138.14032 C 52.660347 138.56734 51.563789 139.00241 51.069809 139.87974 C 50.521354 140.61122 50.550837 141.90209 49.436833 142.02122 C 48.746927 142.41269 47.958404 142.71288 47.42507 143.33276 C 46.763628 144.10439 45.829862 144.66253 45.284115 145.50421 C 44.901982 146.30212 44.267383 146.84914 43.813404 147.5754 C 43.02781 148.16056 42.337033 148.82521 41.536541 149.38872 C 41.274654 149.57205 39.886042 150.42506 39.800212 150.64601 C 39.714381 150.86695 39.744634 150.97243 39.931471 151.29972 C 40.118312 151.62698 40.525545 152.51636 41.214596 151.92087 C 41.903648 151.32538 42.810902 150.06024 43.611349 150.78864 C 44.080279 150.53636 45.819811 151.16305 46.202406 150.94729 C 46.023701 151.41789 46.6663 151.99242 46.72072 152.57716 C 46.775142 153.1619 46.064728 153.48322 46.181735 153.9254 C 46.744553 153.38305 48.107298 153.44608 48.800697 153.78432 C 48.813332 153.5278 48.295887 153.33672 48.155258 153.20916 C 48.255957 153.00424 48.553577 152.88991 48.828602 152.81901 C 48.422859 152.68787 47.704738 152.6636 47.330502 152.79937 C 46.985053 152.56973 46.854997 152.23048 46.59618 151.3824 C 46.337364 150.53432 47.2702 151.07573 48.249309 150.80363 C 49.228418 150.53153 49.035612 151.23488 49.605815 151.93482 C 49.958042 152.70262 50.971876 153.21819 51.017616 153.60914 C 50.741737 153.7595 50.488667 154.01482 50.424887 154.12384 C 51.08662 154.08542 51.198631 153.6542 51.686825 153.82308 C 51.930923 153.90752 52.559729 153.91524 52.893987 154.05562 C 52.782263 153.80779 52.360705 153.77821 52.24183 153.59932 C 52.362578 153.50002 52.704398 153.61853 53.111545 153.55643 C 52.908463 153.42774 52.739673 153.19037 52.184986 153.34456 C 52.205559 153.0904 52.459429 153.17354 52.769963 152.90014 C 52.501191 152.61603 51.779514 153.32475 51.48167 153.16472 C 50.965862 152.67146 50.22683 152.01807 49.92931 151.61856 C 49.631796 151.21904 49.772507 150.95052 49.704517 150.51786 C 49.990351 149.83885 50.306669 149.92219 50.781454 149.12362 C 52.331468 148.1557 53.498673 146.6144 54.026217 144.86549 C 54.15594 144.00353 53.847923 143.1362 53.806593 142.26978 C 54.105217 142.13948 54.701364 141.47737 55.242164 141.58042 C 55.415436 141.70534 56.687879 141.95268 56.117563 141.82278 C 56.168647 140.99738 55.007421 141.11452 55.16775 140.32881 C 55.201645 139.80527 54.628754 139.67075 54.574504 139.18625 C 54.199191 138.475 53.961236 137.35552 53.466562 137.0856 z M 54.329558 140.22649 A 0.26458332 0.26458332 0 0 1 54.594141 140.49108 A 0.26458332 0.26458332 0 0 1 54.329558 140.75566 A 0.26458332 0.26458332 0 0 1 54.064975 140.49108 A 0.26458332 0.26458332 0 0 1 54.329558 140.22649 z " /></g></svg>
