<?xml version="1.0" encoding="UTF-8" standalone="no"?>
<!-- Created with Inkscape (http://www.inkscape.org/) -->

<svg
   width="40.110329mm"
   height="14.269318mm"
   viewBox="0 0 40.110329 14.269318"
   version="1.1"
   id="svg5"
   inkscape:version="1.3.2 (091e20e, 2023-11-25)"
   sodipodi:docname="strix.svg"
   xml:space="preserve"
   inkscape:export-filename="tmp.png"
   inkscape:export-xdpi="171.03999"
   inkscape:export-ydpi="171.03999"
   xmlns:inkscape="http://www.inkscape.org/namespaces/inkscape"
   xmlns:sodipodi="http://sodipodi.sourceforge.net/DTD/sodipodi-0.dtd"
   xmlns="http://www.w3.org/2000/svg"
   xmlns:svg="http://www.w3.org/2000/svg"><sodipodi:namedview
     id="namedview7"
     pagecolor="#ffffff"
     bordercolor="#000000"
     borderopacity="0.25"
     inkscape:showpageshadow="2"
     inkscape:pageopacity="0.0"
     inkscape:pagecheckerboard="0"
     inkscape:deskcolor="#d1d1d1"
     inkscape:document-units="mm"
     showgrid="false"
     inkscape:zoom="12.074948"
     inkscape:cx="138.84118"
     inkscape:cy="12.463822"
     inkscape:window-width="872"
     inkscape:window-height="610"
     inkscape:window-x="783"
     inkscape:window-y="57"
     inkscape:window-maximized="0"
     inkscape:current-layer="layer1"
     showguides="true"><inkscape:grid
       type="xygrid"
       id="grid13315"
       originx="0"
       originy="0"
       spacingy="1"
       spacingx="1"
       units="mm"
       visible="false" /><sodipodi:guide
       position="-0.62088806,202.15266"
       orientation="1,0"
       id="guide13317"
       inkscape:locked="false" /><sodipodi:guide
       position="-13.850054,198.18391"
       orientation="0,-1"
       id="guide13319"
       inkscape:locked="false" /><sodipodi:guide
       position="102.56661,104.25682"
       orientation="1,0"
       id="guide4551"
       inkscape:locked="false" /><sodipodi:guide
       position="25.385454,14.682877"
       orientation="0,-1"
       id="guide5892"
       inkscape:locked="false" /></sodipodi:namedview><defs
     id="defs2"><rect
       x="165.33238"
       y="165.66167"
       width="170.87849"
       height="72.536377"
       id="rect827-6-9-4-1-6-6-9-9" /></defs><g
     inkscape:label="Layer 1"
     inkscape:groupmode="layer"
     id="layer1"
     transform="translate(-11.204221,-194.49792)"><g
       aria-label="Strix"
       transform="matrix(0.26458333,0,0,0.26458333,-33.160766,152.59586)"
       id="text825-4-5-8-7-9-3-4"
       style="font-weight:300;font-size:53.3333px;font-family:'Jost*';-inkscape-font-specification:'Jost*, Light';white-space:pre;shape-inside:url(#rect827-6-9-4-1-6-6-9-9);display:inline"><path
         d="m 170.0787,201.04792 -2.4,1.49334 c 1.76,5.22666 5.91999,9.75999 12.37332,9.75999 6.08,0 10.82666,-4.10666 10.82666,-10.18666 0,-6.56 -5.11999,-9.38666 -9.27999,-10.87999 -6.02666,-2.13334 -9.06666,-4.42667 -9.06666,-8.53333 0,-3.36 2.4,-5.86666 6.77333,-5.86666 4.85333,0 7.25333,3.25333 8.53332,6.07999 l 2.56,-1.44 c -1.49333,-3.57333 -5.01333,-7.46666 -10.93332,-7.46666 -5.86667,0 -10.02666,3.68 -10.02666,9.06666 0,6.34666 5.59999,8.85333 9.91999,10.45333 4.26666,1.6 8.47999,3.52 8.47999,8.90666 0,4.10666 -2.93333,7.09333 -7.73332,7.09333 -5.38667,0 -8.26667,-3.78666 -10.02666,-8.48 z"
         id="path8272" /><path
         d="m 193.75869,187.28793 v 2.61333 h 4 v 21.91999 h 2.77333 v -21.91999 h 4 v -2.61333 h -4 v -8.53333 h -2.77333 v 8.53333 z"
         id="path8274" /><path
         d="m 211.99864,187.28793 h -2.77333 v 24.53332 h 2.77333 v -14.93332 c 0,-4.16 1.33333,-7.52 4.96,-7.52 1.28,0 2.13333,0.37333 3.2,1.17333 l 1.54666,-2.29333 c -1.12,-1.06666 -2.56,-1.49333 -4.10666,-1.49333 -2.34667,0 -4.37333,1.6 -5.6,4.10666 z"
         id="path8276" /><path
         d="m 226.39866,176.19461 c 0,1.06666 0.85333,1.97333 1.97333,1.97333 1.12,0 1.97333,-0.90667 1.97333,-1.97333 0,-1.06667 -0.85333,-1.97334 -1.97333,-1.97334 -1.12,0 -1.97333,0.90667 -1.97333,1.97334 z m 0.58667,11.09332 v 24.53332 h 2.77333 v -24.53332 z"
         id="path8278" /><path
         d="m 252.15866,187.28793 -6.82666,9.70666 -6.82667,-9.70666 h -3.19999 l 8.47999,11.89333 -9.01333,12.63999 h 3.2 l 7.36,-10.45333 7.35999,10.45333 h 3.2 l -9.01333,-12.63999 8.48,-11.89333 z"
         id="path8280" /></g><path
       id="path11581-7"
       style="fill:#f0581a;fill-opacity:1;stroke-width:0.10897"
       d="M 47.907407 194.49999 C 47.406079 194.48783 46.906755 194.53175 46.462534 194.77852 C 45.45934 195.2514 45.258597 196.4176 44.722589 197.27501 C 44.193299 197.81435 43.667268 198.35842 42.94802 198.66459 C 42.188631 199.16011 41.458347 199.72971 40.916103 200.4743 C 40.753402 201.15794 40.183174 201.57068 39.764235 202.11296 C 39.428225 202.81614 38.771377 203.24886 38.395843 203.9113 C 38.082886 204.68474 37.392226 205.17235 36.98921 205.88999 C 36.721565 206.26676 36.343471 206.55034 36.074538 206.92817 C 36.011554 207.07223 36.856114 206.50309 37.199533 206.48479 C 37.012262 207.2537 36.196427 207.6347 35.833725 208.3162 C 36.777075 208.3238 37.54906 207.67159 38.343133 207.24546 C 39.001973 206.90034 39.489613 206.3104 40.231907 206.12925 C 40.375094 206.3684 41.546554 205.34112 41.726389 205.74581 C 41.545448 206.27227 41.867263 206.13524 42.220416 205.96389 C 42.71945 205.57934 42.534271 206.5508 42.903578 206.28531 C 43.443356 205.81558 42.592998 207.3276 43.241542 206.88631 C 43.882076 206.637 43.101388 207.43896 43.56762 207.33228 C 44.552255 207.45657 43.638889 207.45866 43.925221 208.09864 C 44.387367 207.62057 44.675714 208.38204 44.848162 208.02784 C 45.299005 207.51088 46.098017 208.01501 46.697145 207.87643 C 47.225697 207.68442 47.986803 208.18226 48.286712 208.26866 C 48.271063 207.95593 48.324955 207.95796 47.890354 207.47336 C 47.455752 206.98874 46.929002 207.04942 46.200018 207.12092 C 45.744534 206.85276 45.423495 206.72613 44.87245 206.4946 C 43.999088 206.05043 45.132298 205.80282 45.572666 205.62024 C 47.208487 204.96892 48.643259 203.82541 49.712465 202.43335 C 50.36584 201.63603 51.095875 200.79814 51.192995 199.73946 C 51.230955 199.32565 51.157814 199.14801 51.173874 198.84753 C 51.357439 198.23034 51.324807 197.71267 51.277227 197.2931 C 51.20531 196.65901 51.103187 195.81548 50.728423 195.4467 C 50.353661 195.07792 49.525328 194.64195 48.800376 194.55115 C 48.509739 194.53478 48.208204 194.50728 47.907407 194.49999 z M 47.312095 196.05803 A 0.52916664 0.52916664 0 0 1 47.841261 196.5872 A 0.52916664 0.52916664 0 0 1 47.312095 197.11636 A 0.52916664 0.52916664 0 0 1 46.782928 196.5872 A 0.52916664 0.52916664 0 0 1 47.312095 196.05803 z M 47.312095 196.23425 A 0.35277778 0.35277778 0 0 0 46.959145 196.5872 A 0.35277778 0.35277778 0 0 0 47.312095 196.94015 A 0.35277778 0.35277778 0 0 0 47.664528 196.5872 A 0.35277778 0.35277778 0 0 0 47.312095 196.23425 z M 49.574489 196.36396 A 0.52916664 0.52916664 0 0 1 50.103655 196.89312 A 0.52916664 0.52916664 0 0 1 49.574489 197.42229 A 0.52916664 0.52916664 0 0 1 49.045322 196.89312 A 0.52916664 0.52916664 0 0 1 49.574489 196.36396 z M 49.574489 196.54017 A 0.35277778 0.35277778 0 0 0 49.222055 196.89312 A 0.35277778 0.35277778 0 0 0 49.574489 197.24556 A 0.35277778 0.35277778 0 0 0 49.927439 196.89312 A 0.35277778 0.35277778 0 0 0 49.574489 196.54017 z " /></g></svg>
