<?xml version="1.0" encoding="UTF-8" standalone="no"?>
<!-- Created with Inkscape (http://www.inkscape.org/) -->

<svg
   width="40.546207mm"
   height="18.044113mm"
   viewBox="0 0 40.546207 18.044113"
   version="1.1"
   id="svg5"
   inkscape:version="1.3.2 (091e20e, 2023-11-25)"
   sodipodi:docname="utter.svg"
   xml:space="preserve"
   inkscape:export-filename="tmp.png"
   inkscape:export-xdpi="171.03999"
   inkscape:export-ydpi="171.03999"
   xmlns:inkscape="http://www.inkscape.org/namespaces/inkscape"
   xmlns:sodipodi="http://sodipodi.sourceforge.net/DTD/sodipodi-0.dtd"
   xmlns="http://www.w3.org/2000/svg"
   xmlns:svg="http://www.w3.org/2000/svg"><sodipodi:namedview
     id="namedview7"
     pagecolor="#ffffff"
     bordercolor="#000000"
     borderopacity="0.25"
     inkscape:showpageshadow="2"
     inkscape:pageopacity="0.0"
     inkscape:pagecheckerboard="0"
     inkscape:deskcolor="#d1d1d1"
     inkscape:document-units="mm"
     showgrid="false"
     inkscape:zoom="3.8119357"
     inkscape:cx="125.00211"
     inkscape:cy="30.561901"
     inkscape:window-width="792"
     inkscape:window-height="474"
     inkscape:window-x="54"
     inkscape:window-y="99"
     inkscape:window-maximized="0"
     inkscape:current-layer="layer1"
     showguides="true"><inkscape:grid
       type="xygrid"
       id="grid13315"
       originx="0"
       originy="0"
       spacingy="1"
       spacingx="1"
       units="mm"
       visible="false" /><sodipodi:guide
       position="-0.97836907,237.23763"
       orientation="1,0"
       id="guide13317"
       inkscape:locked="false" /><sodipodi:guide
       position="-14.207535,233.26888"
       orientation="0,-1"
       id="guide13319"
       inkscape:locked="false" /><sodipodi:guide
       position="102.20913,139.34179"
       orientation="1,0"
       id="guide4551"
       inkscape:locked="false" /><sodipodi:guide
       position="25.027973,49.767852"
       orientation="0,-1"
       id="guide5892"
       inkscape:locked="false" /></sodipodi:namedview><defs
     id="defs2"><rect
       x="165.33238"
       y="165.66167"
       width="170.87849"
       height="72.536377"
       id="rect827-6-9-4-1-6-3" /><rect
       x="482.19177"
       y="295.30188"
       width="327.69745"
       height="62.83186"
       id="rect10965-1-9-67" /></defs><g
     inkscape:label="Layer 1"
     inkscape:groupmode="layer"
     id="layer1"
     transform="translate(-11.561702,-225.8081)"><g
       aria-label="Utter"
       transform="matrix(0.26458333,0,0,0.26458333,-33.297174,186.8513)"
       id="text825-4-5-8-7-9-5"
       style="font-weight:300;font-size:53.3333px;font-family:'Jost*';-inkscape-font-specification:'Jost*, Light';white-space:pre;shape-inside:url(#rect827-6-9-4-1-6-3);display:inline"><path
         d="m 169.54536,174.48794 v 25.27999 c 0,7.41332 4.42667,12.58665 11.94666,12.58665 7.52,0 11.94666,-5.17333 11.94666,-12.58665 v -25.27999 h -2.93333 v 25.27999 c 0,5.97333 -3.25333,9.81332 -9.01333,9.81332 -5.75999,0 -9.01333,-3.83999 -9.01333,-9.81332 v -25.27999 z"
         id="path10566" /><path
         d="m 198.13206,187.28793 v 2.61333 h 4 v 21.91999 h 2.77333 v -21.91999 h 4 v -2.61333 h -4 v -8.53333 h -2.77333 v 8.53333 z"
         id="path10568" /><path
         d="m 209.86535,187.28793 v 2.61333 h 4 v 21.91999 h 2.77333 v -21.91999 h 4 v -2.61333 h -4 v -8.53333 h -2.77333 v 8.53333 z"
         id="path10570" /><path
         d="m 234.55863,212.35458 c 4.90667,0 8.48,-1.97333 11.25333,-6.23999 l -2.24,-1.44 c -2.24,3.52 -4.96,5.06666 -8.69333,5.06666 -5.11999,0 -8.53333,-3.73333 -8.85333,-9.49333 h 20.10666 c 0.0533,-0.26666 0.10667,-0.90666 0.10667,-1.33333 0,-7.19999 -4.58667,-12.15999 -11.25333,-12.15999 -6.93333,0 -11.78666,5.28 -11.78666,12.74666 0,7.51999 4.74666,12.85332 11.35999,12.85332 z m 0.42667,-23.14665 c 4.69333,0 8.15999,3.62667 8.26666,8.64 h -17.17332 c 0.58666,-5.28 4,-8.64 8.90666,-8.64 z"
         id="path10572" /><path
         d="m 255.3053,187.28793 h -2.77334 v 24.53332 h 2.77334 v -14.93332 c 0,-4.16 1.33333,-7.52 4.95999,-7.52 1.28,0 2.13334,0.37333 3.2,1.17333 l 1.54667,-2.29333 c -1.12,-1.06666 -2.56,-1.49333 -4.10667,-1.49333 -2.34666,0 -4.37333,1.6 -5.59999,4.10666 z"
         id="path10574" /></g><path
       id="path460"
       style="fill:#ff6600;stroke-width:0.0297785"
       d="M 48.63024 225.80913 C 48.356168 225.81654 48.079395 225.86982 47.83184 226.05511 C 47.138606 226.40486 46.469317 226.81808 46.423657 227.68292 C 45.641395 227.92576 46.692866 228.31823 46.668086 228.59346 C 46.530729 229.19527 46.985765 228.48922 46.799344 229.02186 C 46.682102 229.7242 46.770764 230.45367 46.534244 231.14679 C 46.54482 231.86932 46.437996 232.60506 46.067089 233.23814 C 45.801914 234.13295 44.847585 234.53033 44.444449 235.3393 C 44.08412 236.03021 43.674709 236.73169 43.485852 237.49783 C 43.307644 238.34971 43.297104 239.22765 42.912243 240.02119 C 42.637255 240.89618 41.691488 240.97254 40.959908 241.28674 C 40.264606 241.58601 39.725535 241.5602 38.669091 242.08359 C 37.551729 242.40641 35.648911 243.54916 35.948327 243.84938 C 36.623425 243.90505 39.459119 243.0819 40.10673 242.79621 C 41.241287 242.26305 43.515016 242.43112 44.555037 241.71049 C 45.184687 242.07772 45.357153 242.48905 46.021614 242.72645 C 46.712057 243.03082 47.484046 243.13446 48.199776 243.3662 C 48.448271 243.38801 49.770714 243.44967 49.126334 243.11609 C 48.575517 242.53485 47.532549 242.79942 47.083048 242.25929 C 46.716441 241.57305 47.259448 241.83234 47.731587 241.82934 C 48.507404 241.98179 49.299121 242.01111 50.081831 242.09341 C 50.005899 242.03268 49.521506 241.2451 49.063289 241.40456 C 48.353389 241.26398 47.779083 241.38936 47.122322 241.29656 C 46.382203 241.26586 47.32003 240.20393 47.53625 239.84807 C 48.141657 239.29686 48.391983 238.52042 48.923763 237.92467 C 49.363135 237.42636 49.774995 236.92437 49.595556 236.20902 C 49.614712 235.53885 50.166319 234.93446 50.485941 234.48302 C 51.179679 234.6835 51.210488 234.02787 50.597562 233.86756 C 50.996098 233.67345 50.730308 232.74266 51.279174 233.39368 C 51.740202 233.88947 51.098384 233.99112 51.709639 234.15643 C 51.871413 234.03076 52.080324 234.15717 52.108064 233.74818 C 52.076589 233.03207 51.782777 232.25911 51.056966 231.99067 C 50.263277 231.73351 49.996606 230.91777 50.202754 230.16339 C 50.469119 229.32367 49.731462 228.67509 49.803812 227.89169 C 50.144218 227.48305 50.355375 227.08451 50.160896 226.66696 C 50.390883 225.97802 49.324755 226.55864 49.410555 225.83911 C 49.175412 225.84047 48.904313 225.80173 48.63024 225.80913 z M 48.388911 226.34243 A 0.26458332 0.26458332 0 0 1 48.653495 226.60702 A 0.26458332 0.26458332 0 0 1 48.388911 226.8716 A 0.26458332 0.26458332 0 0 1 48.124328 226.60702 A 0.26458332 0.26458332 0 0 1 48.388911 226.34243 z " /></g></svg>
